<mxfile host="65bd71144e">
    <diagram name="MCP Server Architecture" id="mcp-server-azure-devops-arch">
        <mxGraphModel dx="2410" dy="800" grid="1" gridSize="10" guides="1" tooltips="1" connect="1" arrows="1" fold="1" page="1" pageScale="1" pageWidth="1200" pageHeight="800" math="0" shadow="0">
            <root>
                <mxCell id="0"/>
                <mxCell id="1" parent="0"/>
                <mxCell id="2" value="Client / LLM&#xa;(VS Code, Chatbot, Automation)" style="rounded=1;whiteSpace=wrap;html=1;fillColor=#b3e5fc;strokeColor=#0288d1;fontSize=16;fontColor=#01579b;" parent="1" vertex="1">
                    <mxGeometry x="60" y="120" width="200" height="80" as="geometry"/>
                </mxCell>
                <mxCell id="3" value="MCP Server&#xa;(.NET &amp; C#)" style="rounded=1;whiteSpace=wrap;html=1;fillColor=#c8e6c9;strokeColor=#388e3c;fontSize=16;fontColor=#1b5e20;" parent="1" vertex="1">
                    <mxGeometry x="340" y="120" width="220" height="80" as="geometry"/>
                </mxCell>
                <mxCell id="4" value="Azure DevOps API" style="rounded=1;whiteSpace=wrap;html=1;fillColor=#ffe0b2;strokeColor=#f57c00;fontSize=16;fontColor=#e65100;" parent="1" vertex="1">
                    <mxGeometry x="660" y="60" width="200" height="80" as="geometry"/>
                </mxCell>
                <mxCell id="5" value="Microsoft Entra ID&#xa;(Azure AD) Authentication" style="rounded=1;whiteSpace=wrap;html=1;fillColor=#e1bee7;strokeColor=#8e24aa;fontSize=16;fontColor=#4a148c;" parent="1" vertex="1">
                    <mxGeometry x="660" y="200" width="200" height="80" as="geometry"/>
                </mxCell>
                <mxCell id="6" style="endArrow=block;endFill=1;strokeColor=#0288d1;strokeWidth=2;" parent="1" source="2" target="3" edge="1">
                    <mxGeometry relative="1" as="geometry"/>
                </mxCell>
                <mxCell id="7" style="endArrow=block;endFill=1;strokeColor=#f57c00;strokeWidth=2;" parent="1" source="3" target="4" edge="1">
                    <mxGeometry relative="1" as="geometry"/>
                </mxCell>
                <mxCell id="9" value="On-Behalf-Of" style="edgeLabel;html=1;align=center;verticalAlign=middle;resizable=0;points=[];" vertex="1" connectable="0" parent="7">
                    <mxGeometry x="0.1307" y="3" relative="1" as="geometry">
                        <mxPoint as="offset"/>
                    </mxGeometry>
                </mxCell>
                <mxCell id="8" style="endArrow=block;endFill=1;strokeColor=#8e24aa;strokeWidth=2;" parent="1" source="3" target="5" edge="1">
                    <mxGeometry relative="1" as="geometry"/>
                </mxCell>
            </root>
        </mxGraphModel>
    </diagram>
</mxfile>